<?xml version="1.0" encoding="UTF-8"?>
<svg id="Layer_1" data-name="Layer 1" xmlns="http://www.w3.org/2000/svg" viewBox="0 0 300 300">
  <defs>
    <style>
      .cls-1, .cls-2 {
        fill: #272525;
      }

      .cls-2 {
        fill-rule: evenodd;
      }
    </style>
  </defs>
  <g>
    <path class="cls-1" d="M205.92,74.25v95.09c0,.37-.3.67-.67.67h-6.96s-.25,0-.43-.17c-.03-.04-.06-.07-.08-.11-.09-.15-.08-.29-.08-.32v-77.73c0-.76-.92-1.15-1.47-.62l-34.38,33.6c-.32.32-.85.34-1.19.03-5.27-4.8-9.99-10.16-15.05-15.15-7.68-7.57-16.16-16.48-21.07-25.69-4.5-8.43-4.67-18.68-.53-27.27,3.76-7.82,10.61-15.12,19.23-17.35,4.69-1.21,9.66-.78,14.27.57,5.89,1.73,11.26,5.17,15.28,9.69,0,.01.02.02.03.04.06.05.14.14.25.26,2.83,3.13,5.52,6.51,6.71,10.74,2.12,7.46.28,15.4-4.74,21.13-.78.89-2.25.62-2.62-.51-1.64-4.98-5.8-7.12-8.88-12.69-3.91-7.07-5.46-13.94-4.46-19.44.12-.64-.17-1.29-.77-1.55-9.1-3.97-18.56,1.06-23.57,8.91-1.5,2.35-2.59,4.98-3.27,7.68-.63,2.53-.94,4.9-.96,7.13-.16,15.42,13.02,24.6,22.88,36.06.02.02.04.03.06.05l6.83,6.53c.34.32.87.31,1.21-.02l36.29-35.88,2-1.98c1.21-1.19,2.59-2.18,4.08-2.94.94-.48,2.06.18,2.06,1.24Z"/>
    <path class="cls-2" d="M169.5,182.94c-6.41,10.3-17.92,17.15-30.64,13.59-1.12-.31-2.22-.7-3.3-1.14-2.15-.89-4.21-2-6.15-3.28-2.96-1.96-5.55-4.43-7.64-7.25l-.02-.02c-4.96-5.41-7.07-12.97-5.44-20.28,1.82-8.22,8.03-14.73,16.09-16.95.37-.1.72.26.6.63-1.93,6.05,1.3,10.03,1.36,17.05.08,7.31-1.3,13.06-4.14,17.28-.13.19-.11.44.03.61,10.39,12.34,28.53,7.71,33.91-9.65,2.08-6.71,1.89-14.12-1.25-20.48-3.4-6.88-9.31-12.34-14.5-17.85-14.6-15.53-30.1-30.27-44.92-45.59-.25-.4-.94-.35-1.28-.12-.13.08-.21.19-.21.3v79.68s0,.22-.15.37c-.16.16-.35.17-.39.17h-6.89c-.28,0-.5-.22-.5-.5v-95.05c0-1.1,1.16-1.8,2.14-1.31,1.75.87,3.36,2.01,4.77,3.42.41.41.82.81,1.23,1.22,18.03,17.92,35.86,36.16,53.87,53.99,13.39,13.25,24.77,32.91,13.41,51.17Z"/>
  </g>
  <g>
    <g>
      <path class="cls-1" d="M44.98,249.41v-12.66c0-3.09-1.23-4.83-3.6-4.83s-4.91,2.02-5.66,5.86l-.04,10.17c0,.99.08,1.9.28,2.45-.75.08-1.62.16-2.33.16-.83,0-1.15-.16-1.15-.83v-12.98c0-3.09-1.11-4.83-3.4-4.83-2.45,0-4.87,2.1-5.58,6.05v9.97c0,.99.08,1.9.28,2.45-.75.08-1.62.16-2.37.16-.87,0-1.15-.16-1.15-.83v-16.86c0-1.23-.24-1.86-.75-2.1.63-.44,1.54-.67,2.33-.67,1.27,0,1.66.47,1.66,2.37v3.28c1.34-3.84,4.11-5.82,7.12-5.82s4.87,2.1,5.06,5.82c1.38-3.84,4.23-5.82,7.28-5.82,3.32,0,5.26,2.41,5.26,6.65v11.71c0,1.03.2,1.42.79,1.66-.87.44-1.74.71-2.53.71-.95,0-1.5-.47-1.5-1.27Z"/>
      <path class="cls-1" d="M55.07,244.27v-11.59c0-1.03-.16-1.82-.47-2.22.67-.2,1.62-.32,2.37-.32.99,0,1.34.24,1.34,1.11v12.82c0,3.09,1.23,4.83,3.56,4.83,2.49,0,4.99-2.18,5.66-6.25v-9.85c0-1.03-.08-1.94-.28-2.45.75-.12,1.62-.16,2.37-.16.87,0,1.15.12,1.15.83v16.86c0,1.23.24,1.9.79,2.14-.67.4-1.54.63-2.37.63-1.23,0-1.66-.47-1.66-2.37v-3.36c-1.34,3.92-4.19,5.97-7.24,5.97-3.28,0-5.22-2.41-5.22-6.61Z"/>
      <path class="cls-1" d="M103.26,249.41v-12.66c0-3.09-1.23-4.83-3.6-4.83s-4.91,2.02-5.66,5.86l-.04,10.17c0,.99.08,1.9.28,2.45-.75.08-1.62.16-2.33.16-.83,0-1.15-.16-1.15-.83v-12.98c0-3.09-1.11-4.83-3.4-4.83-2.45,0-4.87,2.1-5.58,6.05v9.97c0,.99.08,1.9.28,2.45-.75.08-1.62.16-2.37.16-.87,0-1.15-.16-1.15-.83v-16.86c0-1.23-.24-1.86-.75-2.1.63-.44,1.54-.67,2.33-.67,1.27,0,1.66.47,1.66,2.37v3.28c1.35-3.84,4.12-5.82,7.12-5.82s4.87,2.1,5.06,5.82c1.38-3.84,4.23-5.82,7.28-5.82,3.32,0,5.26,2.41,5.26,6.65v11.71c0,1.03.2,1.42.79,1.66-.87.44-1.74.71-2.53.71-.95,0-1.5-.47-1.5-1.27Z"/>
      <path class="cls-1" d="M111.96,240.55c0-6.05,3.48-10.56,9.1-10.6,4.08,0,6.77,1.9,7.75,5.5-.95,4.79-4.71,6.41-8.55,6.41-1.7-.04-3.48-.4-4.91-.91.44,4.63,2.97,7.6,6.73,7.6,2.93,0,5.97-1.9,6.57-4.99.12.32.2.51.2,1.03-.04,3.21-3.6,6.25-7.72,6.25-5.38,0-9.18-3.88-9.18-10.29ZM115.32,240.23c1.23.4,2.77.67,4.19.67,3.72,0,5.93-2.02,5.93-5.38,0-3.05-1.94-4.95-4.47-4.95-3.24,0-5.66,3.28-5.66,9.02v.63Z"/>
      <path class="cls-1" d="M147.17,249.41v-12.66c0-3.09-1.27-4.83-3.72-4.83s-5.1,2.1-5.82,6.05v9.97c0,.99.08,1.9.28,2.45-.75.08-1.62.16-2.37.16-.87,0-1.15-.16-1.15-.83v-16.86c0-1.23-.24-1.86-.75-2.1.63-.44,1.54-.67,2.33-.67,1.27,0,1.66.51,1.66,2.41v3.28c1.38-3.88,4.27-5.86,7.4-5.86,3.4,0,5.38,2.41,5.38,6.65v11.71c0,1.03.2,1.42.79,1.66-.87.44-1.74.71-2.53.71-.95,0-1.5-.47-1.5-1.27Z"/>
      <path class="cls-1" d="M158.13,245.46v-14.01l-3.24-.04c0-.63.28-.99.99-.99h2.25v-2.53c0-1.23-.24-1.86-.67-2.1.55-.44,1.46-.67,2.29-.67,1.23,0,1.62.47,1.62,2.37v2.93h4.95c0,.99-.36,1.23-1.31,1.23-1.19,0-2.22-.12-3.64-.16v14.05c0,2.65.67,3.68,2.57,3.68.75,0,1.74-.2,2.37-.55-.59,1.11-2.06,2.22-4.39,2.22-2.65,0-3.8-1.54-3.8-5.42Z"/>
      <path class="cls-1" d="M171.35,249.37v-16.5c0-1.23-.2-1.86-.75-2.1.63-.44,1.54-.67,2.37-.67,1.23,0,1.62.47,1.62,2.37v15.79c0,1.03.24,1.42.83,1.66-.87.43-1.78.71-2.53.71-.95,0-1.54-.47-1.54-1.27ZM170.63,224.37c0-1.27,1.07-2.21,2.33-2.21s2.33.95,2.33,2.21-1.11,2.22-2.33,2.22-2.33-.95-2.33-2.22Z"/>
      <path class="cls-1" d="M188.91,244.7c.67-.48,1.66-.79,2.29-.79.55,0,.87.24.87.67,0,.4-.12.91-.12,1.34.04,2.57,1.9,4.31,4.39,4.31,2.69,0,4.75-1.66,4.75-4.19s-1.38-3.68-5.62-5.02c-4.08-1.35-5.78-2.93-5.78-5.86,0-3.36,3.09-5.22,6.84-5.22s6.77,2.02,6.92,5.06c-.63.55-1.66.87-2.37.87-.43,0-.63-.2-.63-.55l.04-1.07c0-2.18-1.9-3.68-3.96-3.68s-4.12,1.23-4.12,3.56c0,2.1,1.38,2.93,5.18,4.19,4.67,1.46,6.37,3.21,6.37,6.69,0,3.8-3.32,5.86-7.64,5.86s-7.36-2.18-7.44-6.17Z"/>
      <path class="cls-1" d="M209.13,250.28c.28-.55.36-1.34.36-2.33v-24.85c0-.95-.12-1.66-.55-2.18.47-.36,1.38-.59,2.18-.59,1.23,0,1.62.51,1.62,2.41v9.89c1.35-1.66,3.4-2.69,5.58-2.69,4.95,0,8.31,3.88,8.31,10.17s-3.28,10.76-8.55,10.76c-2.14,0-3.92-.99-5.34-2.49v.67c0,1.23-.51,1.58-1.58,1.58-.59,0-1.35-.12-2.02-.36ZM217.63,249.69c3.28,0,5.5-3.84,5.5-9.5,0-6.29-2.41-9.34-5.46-9.34-2.69,0-4.91,2.77-4.95,5.38v11.24c1.31,1.34,3.01,2.21,4.91,2.21Z"/>
      <path class="cls-1" d="M232.47,249.37v-16.5c0-1.23-.2-1.86-.75-2.1.63-.44,1.54-.67,2.37-.67,1.23,0,1.62.47,1.62,2.37v15.79c0,1.03.24,1.42.83,1.66-.87.43-1.78.71-2.53.71-.95,0-1.54-.47-1.54-1.27ZM231.76,224.37c0-1.27,1.07-2.21,2.33-2.21s2.33.95,2.33,2.21-1.11,2.22-2.33,2.22-2.33-.95-2.33-2.22Z"/>
      <path class="cls-1" d="M241.61,240.55c0-6.05,3.48-10.56,9.1-10.6,4.08,0,6.77,1.9,7.75,5.5-.95,4.79-4.71,6.41-8.55,6.41-1.7-.04-3.48-.4-4.91-.91.44,4.63,2.97,7.6,6.73,7.6,2.93,0,5.97-1.9,6.57-4.99.12.32.2.51.2,1.03-.04,3.21-3.6,6.25-7.72,6.25-5.38,0-9.18-3.88-9.18-10.29ZM244.97,240.23c1.23.4,2.77.67,4.19.67,3.72,0,5.93-2.02,5.93-5.38,0-3.05-1.94-4.95-4.47-4.95-3.24,0-5.66,3.28-5.66,9.02v.63Z"/>
      <path class="cls-1" d="M264,249.73v-26.63c0-.95-.12-1.66-.55-2.18.48-.36,1.39-.59,2.18-.59,1.23,0,1.62.51,1.62,2.41v13.18c1.35-3.96,4.27-5.97,7.44-5.97,3.4,0,5.34,2.41,5.34,6.65v11.71c0,1.03.24,1.42.83,1.66-.87.44-1.78.71-2.57.71-.91,0-1.5-.47-1.5-1.27v-12.66c0-3.09-1.23-4.83-3.68-4.83s-5.1,2.1-5.86,6.05v9.97c0,.99.12,1.9.32,2.45-.75.08-1.66.16-2.37.16-.87,0-1.19-.16-1.19-.83Z"/>
    </g>
    <path class="cls-1" d="M265.75,226.17c0-.48.2-.83.67-.83h9.38c.12.32.16.71.16,1.15s-.2.83-.67.83h-9.34c-.12-.28-.2-.71-.2-1.15Z"/>
  </g>
</svg>